Coordinates
version=1
nRows=7
nColumns=46
inDegrees=yes

Units are S.I. units (second, meters, Newtons, ...)
Angles are in degrees.

endheader
time	pelvis_tilt	pelvis_list	pelvis_rotation	pelvis_tx	pelvis_ty	pelvis_tz	bb_angle	bb_tx	bb_ty	bb_tz	hip_flexion_r	hip_adduction_r	hip_rotation_r	knee_angle_r	knee_angle_r_beta	ankle_angle_r	subtalar_angle_r	mtp_angle_r	crank_angle_r	hip_flexion_l	hip_adduction_l	hip_rotation_l	knee_angle_l	knee_angle_l_beta	ankle_angle_l	subtalar_angle_l	mtp_angle_l	crank_angle_l	lumbar_extension	lumbar_bending	lumbar_rotation	arm_flex_r	arm_add_r	arm_rot_r	elbow_flex_r	pro_sup_r	wrist_flex_r	wrist_dev_r	arm_flex_l	arm_add_l	arm_rot_l	elbow_flex_l	pro_sup_l	wrist_flex_l	wrist_dev_l
      0.00500000	    -16.39166977	      3.63450362	      0.97398163	      0.10805348	      1.07528740	     -0.25926873	      0.00000000	      0.50000000	      0.00000000	      0.25000000	     43.33825185	     -8.32723135	     -2.32519148	     47.19235146	      0.82366191	      5.38140403	     -8.87659162	      0.00000000	      0.00000000	     93.53578178	     -2.57927563	     -0.99725103	    108.11800748	      1.88701521	     20.92644815	     -8.51728203	      0.00000000	      0.00000000	    -50.89076430	     -0.84153049	     -3.21600056	     89.52953537	     -7.83120633	     39.93538939	     27.86180529	     27.01010054	      0.00000000	      0.00000000	     89.38103339	     -6.93532236	     42.32119447	     28.70929999	     27.63313601	      0.00000000	      0.00000000
      0.01000000	    -16.44986177	      3.58585505	      1.01591418	      0.10805753	      1.07516132	     -0.25940487	      0.00000000	      0.50000000	      0.00000000	      0.25000000	     43.40323627	     -8.32173823	     -2.38995197	     47.23089022	      0.82433454	      5.35402814	     -8.90231799	      0.00000000	      0.00000000	     93.61796890	     -2.51826366	     -0.94741430	    108.10227462	      1.88674062	     20.87397931	     -8.60028984	      0.00000000	      0.00000000	    -50.83362499	     -0.77847779	     -3.21941596	     89.53034559	     -7.52639690	     38.75641574	     27.50200208	     27.92584589	      0.00000000	      0.00000000	     89.35910470	     -6.63944340	     40.99333227	     28.46221145	     28.48619708	      0.00000000	      0.00000000
      0.01500000	    -16.43908182	      3.53084592	      0.99265792	      0.10812651	      1.07504781	     -0.25946418	      0.00000000	      0.50000000	      0.00000000	      0.25000000	     43.40247049	     -8.26759447	     -2.41216127	     47.27941023	      0.82518138	      5.37735914	     -8.91949935	      0.00000000	      0.00000000	     93.63022831	     -2.54371950	     -0.88624507	    108.12974578	      1.88722008	     20.91630858	     -8.53971214	      0.00000000	      0.00000000	    -50.82956125	     -0.75282786	     -3.12590168	     89.53401297	     -7.92651572	     39.70032982	     27.37575645	     30.37303377	      0.00000000	      0.00000000	     89.37714785	     -6.90476897	     42.03083879	     28.17152617	     31.05457364	      0.00000000	      0.00000000
      0.02000000	    -16.44393072	      3.47587544	      0.98510754	      0.10829069	      1.07499289	     -0.25953876	      0.00000000	      0.50000000	      0.00000000	      0.25000000	     43.39196139	     -8.21100922	     -2.41173935	     47.30453734	      0.82561993	      5.38728276	     -8.96795372	      0.00000000	      0.00000000	     93.67482731	     -2.54076940	     -0.84284091	    108.13734541	      1.88735272	     20.83472818	     -8.59775058	      0.00000000	      0.00000000	    -50.81659774	     -0.68565573	     -3.10120372	     89.52885875	     -7.62816404	     38.74566700	     27.08491118	     31.06111690	      0.00000000	      0.00000000	     89.38256237	     -6.60919039	     40.87021142	     27.89062914	     31.71973313	      0.00000000	      0.00000000
      0.02500000	    -16.46064709	      3.47360289	      0.98531918	      0.10824075	      1.07491855	     -0.25963445	      0.00000000	      0.50000000	      0.00000000	      0.25000000	     43.44557443	     -8.22576274	     -2.42393451	     47.37311722	      0.82681687	      5.39988377	     -8.94189357	      0.00000000	      0.00000000	     93.53312368	     -2.51988980	     -0.88183325	    107.87032426	      1.88269232	     20.72921264	     -8.86926465	      0.00000000	      0.00000000	    -50.81435669	     -0.71342557	     -3.06452233	     89.54244497	     -7.84089332	     38.95592818	     27.22705489	     31.17895422	      0.00000000	      0.00000000	     89.40423578	     -6.53270582	     40.91984407	     27.75192126	     31.84548903	      0.00000000	      0.00000000
      0.03000000	    -16.43118151	      3.35930452	      0.90030333	      0.10845809	      1.07482472	     -0.25952777	      0.00000000	      0.50000000	      0.00000000	      0.25000000	     43.39763342	     -8.05485320	     -2.39290209	     47.38070973	      0.82694939	      5.41195628	     -8.95846598	      0.00000000	      0.00000000	     93.56225629	     -2.66274070	     -0.65106944	    107.97146118	      1.88445750	     20.98738285	     -8.36124348	      0.00000000	      0.00000000	    -50.81436787	     -0.69318231	     -2.89216714	     89.54511216	     -8.12465345	     39.70115614	     27.22370894	     32.24241295	      0.00000000	      0.00000000	     89.40386978	     -6.71669225	     41.70672898	     27.65589702	     33.03141415	      0.00000000	      0.00000000
      0.03500000	    -16.46657968	      3.26239505	      0.81115492	      0.10848983	      1.07457526	     -0.25941069	      0.00000000	      0.50000000	      0.00000000	      0.25000000	     43.47231382	     -7.89006835	     -2.34252611	     47.45161431	      0.82818691	      5.39536033	     -9.03934159	      0.00000000	      0.00000000	     93.67982890	     -2.87406099	     -0.47575240	    108.08951871	      1.88651799	     21.23486268	     -7.77098206	      0.00000000	      0.00000000	    -50.76566131	     -0.68245191	     -2.74590303	     89.54023624	     -7.94704163	     39.13194410	     27.08997264	     32.35949435	      0.00000000	      0.00000000	     89.39389094	     -6.53933809	     41.10275299	     27.53134034	     33.17130295	      0.00000000	      0.00000000
